{"title":"The.Hobbit.An.Unexpected.Journey.2012.BRRip.x264.AC3.KSTE","uid":8246608,"size":3272949014,"categoryP":"video","categoryS":"hd___movies","magnet":"?xt=urn:btih:f0e73ffc4c809b5b491c939356601c9209f11a32&amp;dn=The.Hobbit.An.Unexpected.Journey.2012.BRRip.x264.AC3.KSTE&amp;tr=udp%3A%2F%2Ftracker.openbittorrent.com%3A80&amp;tr=udp%3A%2F%2Fopen.demonii.com%3A1337&amp;tr=udp%3A%2F%2Ftracker.coppersurfer.tk%3A6969&amp;tr=udp%3A%2F%2Fexodus.desync.com%3A6969","seeders":1,"leechers":0,"uploader":"jessketeer","files":-1,"time":1363075919,"description":"Note: VIETNAMESE HARD SUB + WATERMARKS - DOWNLOAD AT YOUR OWN CHOICE!\n\nCAP: &lt;a href=&quot;\nhttp://i.imgur.com/ge9vVpj.jpg&quot; rel=&quot;nofollow&quot; target=&quot;_NEW&quot;&gt;\nhttp://i.imgur.com/ge9vVpj.jpg&lt;/a&gt; &lt;a href=&quot;\nhttp://i.imgur.com/ih7X4gK.jpg&quot; rel=&quot;nofollow&quot; target=&quot;_NEW&quot;&gt;\nhttp://i.imgur.com/ih7X4gK.jpg&lt;/a&gt;\n\nTHUMBNAILS: &lt;a href=&quot;\nhttp://i.imgur.com/goYPpgC.jpg&quot; rel=&quot;nofollow&quot; target=&quot;_NEW&quot;&gt;\nhttp://i.imgur.com/goYPpgC.jpg&lt;/a&gt; \n\n\n\nFormat                                   : Matroska\nFormat version                           : Version 4 / Version 2\nFile size                                : 3.05 GiB\nDuration                                 : 2h 49mn\nOverall bit rate                         : 2 568 Kbps\nEncoded date                             : UTC 2013-03-11 16:18:21\nWriting application                      : mkvmerge v6.0.0 ('Coming Up For Air') built on Jan 20 2013 09:52:00\nWriting library                          : libebml v1.3.0 + libmatroska v1.4.0\n\nVideo\nID                                       : 1\nFormat                                   : AVC\nFormat/Info                              : Advanced Video Codec\nFormat profile                           : &lt;a class=&quot;__cf_email__&quot; href=&quot;/cdn-cgi/l/email-protection&quot; data-cfemail=&quot;e2aa8b858aa2aed6ccd2&quot;&gt;[email&amp;#160;protected]&lt;/a&gt;&lt;script cf-hash='f9e31' type=&quot;text/javascript&quot;&gt;\n/* &lt;![CDATA[ */!function(){try{var t=&quot;currentScript&quot;in document?document.currentScript:function(){for(var t=document.getElementsByTagName(&quot;script&quot;),e=t.length;e--;)if(t[e].getAttribute(&quot;cf-hash&quot;))return t[e]}();if(t&amp;&amp;t.previousSibling){var e,r,n,i,c=t.previousSibling,a=c.getAttribute(&quot;data-cfemail&quot;);if(a){for(e=&quot;&quot;,r=parseInt(a.substr(0,2),16),n=2;a.length-n;n+=2)i=parseInt(a.substr(n,2),16)^r,e+=String.fromCharCode(i);e=document.createTextNode(e),c.parentNode.replaceChild(e,c)}}}catch(u){}}();/* ]]&gt; */&lt;/script&gt;\nFormat settings, CABAC                   : Yes\nFormat settings, ReFrames                : 11 frames\nCodec ID                                 : V_MPEG4/ISO/AVC\nDuration                                 : 2h 49mn\nBit rate                                 : 2 133 Kbps\nWidth                                    : 1 280 pixels\nHeight                                   : 534 pixels\nDisplay aspect ratio                     : 2.40:1\nFrame rate mode                          : Constant\nFrame rate                               : 23.976 fps\nColor space                              : YUV\nChroma subsampling                       : 4:2:0\nBit depth                                : 8 bits\nScan type                                : Progressive\nBits/(Pixel*Frame)                       : 0.130\nStream size                              : 2.53 GiB (83%)\nLanguage                                 : English\nDefault                                  : Yes\nForced                                   : No\nMatrix coefficients                      : BT.709\n\nAudio\nID                                       : 2\nFormat                                   : AC-3\nFormat/Info                              : Audio Coding 3\nMode extension                           : CM (complete main)\nFormat settings, Endianness              : Big\nCodec ID                                 : A_AC3\nDuration                                 : 2h 49mn\nBit rate mode                            : Constant\nBit rate                                 : 384 Kbps\nChannel(s)                               : 2 channels\nChannel positions                        : Front: L R\nSampling rate                            : 48.0 KHz\nBit depth                                : 16 bits\nCompression mode                         : Lossy\nStream size                              : 467 MiB (15%)\nDefault                                  : Yes\nForced                                   : No\n\n\n\nNote: VIETNAMESE HARD SUB + WATERMARKS - DOWNLOAD AT YOUR OWN CHOICE!\n\nCAP: &lt;a href=&quot;\nhttp://i.imgur.com/ge9vVpj.jpg&quot; rel=&quot;nofollow&quot; target=&quot;_NEW&quot;&gt;\nhttp://i.imgur.com/ge9vVpj.jpg&lt;/a&gt; &lt;a href=&quot;\nhttp://i.imgur.com/ih7X4gK.jpg&quot; rel=&quot;nofollow&quot; target=&quot;_NEW&quot;&gt;\nhttp://i.imgur.com/ih7X4gK.jpg&lt;/a&gt;\n\nTHUMBNAILS: &lt;a href=&quot;\nhttp://i.imgur.com/goYPpgC.jpg&quot; rel=&quot;nofollow&quot; target=&quot;_NEW&quot;&gt;\nhttp://i.imgur.com/goYPpgC.jpg&lt;/a&gt; ","torrent":{"xt":"urn:btih:f0e73ffc4c809b5b491c939356601c9209f11a32","amp;dn":"The.Hobbit.An.Unexpected.Journey.2012.BRRip.x264.AC3.KSTE","amp;tr":["udp%3A%2F%2Ftracker.openbittorrent.com%3A80","udp%3A%2F%2Fopen.demonii.com%3A1337","udp%3A%2F%2Ftracker.coppersurfer.tk%3A6969","udp%3A%2F%2Fexodus.desync.com%3A6969"],"infoHash":"f0e73ffc4c809b5b491c939356601c9209f11a32","infoHashBuffer":{"type":"Buffer","data":[240,231,63,252,76,128,155,91,73,28,147,147,86,96,28,146,9,241,26,50]},"announce":[],"urlList":[]}}